<mxfile host="65bd71144e">
    <diagram id="B7DF7C7eXfONZMlZndh2" name="Page-1">
        <mxGraphModel dx="774" dy="435" grid="0" gridSize="10" guides="1" tooltips="1" connect="1" arrows="1" fold="1" page="1" pageScale="1" pageWidth="827" pageHeight="1169" background="#ffffff" math="0" shadow="0">
            <root>
                <mxCell id="0"/>
                <mxCell id="1" parent="0"/>
                <mxCell id="30" value="" style="rounded=0;whiteSpace=wrap;html=1;fontSize=7;fillColor=none;" vertex="1" parent="1">
                    <mxGeometry x="183" y="127" width="378" height="277" as="geometry"/>
                </mxCell>
                <mxCell id="3" value="" style="rounded=0;whiteSpace=wrap;html=1;fillColor=#e3c800;strokeColor=#B09500;fontColor=#000000;" vertex="1" parent="1">
                    <mxGeometry x="205" y="143" width="300" height="200" as="geometry"/>
                </mxCell>
                <mxCell id="4" value="&lt;font color=&quot;#000000&quot;&gt;C&lt;/font&gt;" style="text;html=1;strokeColor=none;fillColor=none;align=center;verticalAlign=middle;whiteSpace=wrap;rounded=0;" vertex="1" parent="1">
                    <mxGeometry x="205" y="143" width="46.94656488549618" height="25.380710659898476" as="geometry"/>
                </mxCell>
                <mxCell id="9" value="" style="group" vertex="1" connectable="0" parent="1">
                    <mxGeometry x="365" y="243" width="140" height="100" as="geometry"/>
                </mxCell>
                <mxCell id="10" value="" style="rounded=0;whiteSpace=wrap;html=1;strokeColor=#006EAF;fontColor=#ffffff;fillColor=#1ba1e2;" vertex="1" parent="9">
                    <mxGeometry width="140.00000000000003" height="100.00000000000001" as="geometry"/>
                </mxCell>
                <mxCell id="11" value="A" style="text;html=1;strokeColor=none;fillColor=none;align=center;verticalAlign=middle;whiteSpace=wrap;rounded=0;fontColor=#000000;" vertex="1" parent="9">
                    <mxGeometry width="20.186046511627907" height="25.69" as="geometry"/>
                </mxCell>
                <mxCell id="12" value="&lt;font style=&quot;font-size: 7px;&quot;&gt;VirtualClass&lt;br&gt;ptr&lt;br&gt;&lt;/font&gt;" style="rounded=0;whiteSpace=wrap;html=1;strokeColor=#2D7600;fontColor=#ffffff;fillColor=#60a917;" vertex="1" parent="9">
                    <mxGeometry x="100.27906976744187" width="39.72093023255814" height="100" as="geometry"/>
                </mxCell>
                <mxCell id="5" value="" style="group;fillColor=#1ba1e2;fontColor=#ffffff;strokeColor=#006EAF;" vertex="1" connectable="0" parent="1">
                    <mxGeometry x="365" y="143" width="140" height="100" as="geometry"/>
                </mxCell>
                <mxCell id="7" value="B" style="text;html=1;strokeColor=none;fillColor=none;align=center;verticalAlign=middle;whiteSpace=wrap;rounded=0;fontColor=#000000;" vertex="1" parent="5">
                    <mxGeometry width="20.837209302325583" height="25.69" as="geometry"/>
                </mxCell>
                <mxCell id="14" value="&lt;font style=&quot;font-size: 7px;&quot;&gt;VirtualClass&lt;br&gt;ptr&lt;br&gt;&lt;/font&gt;" style="rounded=0;whiteSpace=wrap;html=1;strokeColor=#2D7600;fontColor=#ffffff;fillColor=#60a917;" vertex="1" parent="5">
                    <mxGeometry x="100.27906976744187" width="39.72093023255814" height="100" as="geometry"/>
                </mxCell>
                <mxCell id="8" value="VirtualClass" style="rounded=0;whiteSpace=wrap;html=1;strokeColor=#2D7600;fontColor=#ffffff;fillColor=#60a917;" vertex="1" parent="1">
                    <mxGeometry x="205" y="243" width="160" height="100" as="geometry"/>
                </mxCell>
                <mxCell id="26" value="" style="curved=1;endArrow=classic;html=1;strokeColor=#000000;fontSize=7;entryX=0.75;entryY=1;entryDx=0;entryDy=0;exitX=0.5;exitY=1;exitDx=0;exitDy=0;" edge="1" parent="1" source="12" target="8">
                    <mxGeometry width="50" height="50" relative="1" as="geometry">
                        <mxPoint x="373" y="431" as="sourcePoint"/>
                        <mxPoint x="423" y="381" as="targetPoint"/>
                        <Array as="points">
                            <mxPoint x="406" y="372"/>
                        </Array>
                    </mxGeometry>
                </mxCell>
                <mxCell id="27" value="" style="curved=1;endArrow=classic;html=1;strokeColor=#000000;fontSize=7;entryX=0.5;entryY=1;entryDx=0;entryDy=0;exitX=1;exitY=0.5;exitDx=0;exitDy=0;" edge="1" parent="1" source="14" target="8">
                    <mxGeometry width="50" height="50" relative="1" as="geometry">
                        <mxPoint x="600" y="333" as="sourcePoint"/>
                        <mxPoint x="274" y="373" as="targetPoint"/>
                        <Array as="points">
                            <mxPoint x="543" y="261"/>
                            <mxPoint x="540" y="327"/>
                            <mxPoint x="505" y="369"/>
                            <mxPoint x="444" y="378"/>
                            <mxPoint x="389" y="375"/>
                        </Array>
                    </mxGeometry>
                </mxCell>
            </root>
        </mxGraphModel>
    </diagram>
</mxfile>